<?xml version="1.0"?>
<svg xmlns="http://www.w3.org/2000/svg" xmlns:xlink="http://www.w3.org/1999/xlink" xmlns:svgjs="http://svgjs.com/svgjs" version="1.1" width="512" height="512" x="0" y="0" viewBox="0 0 512 512" style="enable-background:new 0 0 512 512" xml:space="preserve"><g><path xmlns="http://www.w3.org/2000/svg" d="m460.800781 85.332031h-129.066406l-33.734375-80.109375c-1.332031-3.164062-4.433594-5.222656-7.867188-5.222656h-17.066406c-4.710937 0-8.53125 3.820312-8.53125 8.535156v76.796875h-17.070312v-76.796875c0-4.714844-3.820313-8.535156-8.53125-8.535156h-17.066406c-3.433594 0-6.535157 2.058594-7.867188 5.222656l-33.734375 80.109375h-77.867187v-17.066406c0-28.277344-22.921876-51.199219-51.199219-51.199219-28.277344 0-51.199219 22.921875-51.199219 51.199219v375.46875c.0273438 28.265625 22.933594 51.171875 51.199219 51.199219h128v8.53125c0 4.714844 3.820312 8.535156 8.535156 8.535156h136.53125c4.714844 0 8.535156-3.820312 8.535156-8.535156v-8.53125h128c28.265625-.027344 51.171875-22.933594 51.199219-51.199219v-307.199219c-.027344-28.265625-22.933594-51.171875-51.199219-51.203125zm-196.265625 17.066407v55.808593c.042969.351563.113282.699219.210938 1.042969.054687.578125.167968 1.148438.34375 1.707031.1875.5.421875.984375.707031 1.441407.253906.480468.558594.929687.902344 1.347656.394531.421875.828125.804687 1.296875 1.144531.273437.253906.554687.488281.855468.707031 10.035157 5.792969 14.925782 17.605469 11.925782 28.796875-2.996094 11.191407-13.140625 18.972657-24.726563 18.972657-11.585937 0-21.726562-7.78125-24.726562-18.972657-3-11.191406 1.894531-23.003906 11.925781-28.796875.300781-.21875.585938-.453125.855469-.707031.46875-.339844.902343-.722656 1.296875-1.144531.347656-.417969.648437-.867188.902344-1.347656.285156-.457032.523437-.941407.710937-1.441407.171875-.558593.285156-1.128906.339844-1.707031.0625-.34375.097656-.691406.109375-1.042969v-55.808593zm-37.003906-85.332032h2.867188v136.601563c-14.691407 11.019531-20.683594 30.203125-14.875 47.625 5.808593 17.421875 22.113281 29.175781 40.476562 29.175781s34.667969-11.753906 40.476562-29.175781c5.808594-17.421875-.183593-36.605469-14.875-47.625v-136.601563h2.867188l33.722656 80.085938v.066406l31.15625 73.984375-31.515625 110.398437h-123.664062l-31.574219-110.398437 31.15625-73.984375v-.066406zm96.734375 341.332032h-136.53125c-9.425781 0-17.066406-7.640626-17.066406-17.066407h170.664062c0 9.425781-7.640625 17.066407-17.066406 17.066407zm-128-34.132813v-25.597656h119.46875v25.597656zm-145.066406-290.132813c18.851562 0 34.132812 15.28125 34.132812 34.132813v303.277344c-19.382812-17.523438-48.882812-17.523438-68.265625 0v-303.277344c0-18.851563 15.28125-34.132813 34.132813-34.132813zm0 443.734376c-18.851563 0-34.132813-15.28125-34.132813-34.132813v-34.132813c0-18.851562 15.28125-34.136718 34.132813-34.136718 18.851562 0 34.132812 15.285156 34.132812 34.136718 0 4.710938 3.820313 8.53125 8.535157 8.53125 4.710937 0 8.53125-3.820312 8.53125-8.53125v-307.203124h70.683593l-27.308593 64.957031c-.757813 1.792969-.878907 3.789062-.339844 5.65625l33.765625 118.316406v32.9375h-17.066407c-4.710937 0-8.53125 3.820313-8.53125 8.535156v8.53125c.054688 15.519531 10.574219 29.042969 25.597657 32.921875v103.613282zm264.535156 17.066406h-85.335937v-42.667969c0-4.710937-3.820313-8.53125-8.53125-8.53125-4.714844 0-8.535157 3.820313-8.535157 8.53125v42.667969h-17.066406v-119.46875h119.46875zm179.199219-51.199219c0 18.851563-15.28125 34.132813-34.132813 34.132813h-128v-103.613282c15.023438-3.878906 25.542969-17.402344 25.597657-32.921875v-8.53125c0-4.714843-3.820313-8.535156-8.53125-8.535156h-17.066407v-32.9375l33.800781-118.316406c.539063-1.867188.417969-3.863281-.34375-5.65625l-27.339843-64.957031h121.882812c18.851563 0 34.132813 15.285156 34.132813 34.136718zm0 0" fill="#ffffff" data-original="#000000" style=""/><path xmlns="http://www.w3.org/2000/svg" d="m221.867188 392.535156c-4.714844 0-8.535157 3.820313-8.535157 8.53125v17.066406c0 4.714844 3.820313 8.535157 8.535157 8.535157 4.710937 0 8.53125-3.820313 8.53125-8.535157v-17.066406c0-4.710937-3.820313-8.53125-8.53125-8.53125zm0 0" fill="#ffffff" data-original="#000000" style=""/><path xmlns="http://www.w3.org/2000/svg" d="m375.464844 230.398438h17.070312c4.710938 0 8.53125-3.820313 8.53125-8.53125 0-4.714844-3.820312-8.535157-8.53125-8.535157h-17.070312c-4.710938 0-8.53125 3.820313-8.53125 8.535157 0 4.710937 3.820312 8.53125 8.53125 8.53125zm0 0" fill="#ffffff" data-original="#000000" style=""/><path xmlns="http://www.w3.org/2000/svg" d="m452.265625 213.332031h-25.597656c-4.714844 0-8.535157 3.820313-8.535157 8.535157 0 4.710937 3.820313 8.53125 8.535157 8.53125h25.597656c4.714844 0 8.535156-3.820313 8.535156-8.53125 0-4.714844-3.820312-8.535157-8.535156-8.535157zm0 0" fill="#ffffff" data-original="#000000" style=""/><path xmlns="http://www.w3.org/2000/svg" d="m452.265625 256h-85.332031c-4.714844 0-8.535156 3.820312-8.535156 8.535156 0 4.710938 3.820312 8.53125 8.535156 8.53125h85.332031c4.714844 0 8.535156-3.820312 8.535156-8.53125 0-4.714844-3.820312-8.535156-8.535156-8.535156zm0 0" fill="#ffffff" data-original="#000000" style=""/><path xmlns="http://www.w3.org/2000/svg" d="m452.265625 298.667969h-34.132813c-4.710937 0-8.53125 3.820312-8.53125 8.53125 0 4.714843 3.820313 8.535156 8.53125 8.535156h34.132813c4.714844 0 8.535156-3.820313 8.535156-8.535156 0-4.710938-3.820312-8.53125-8.535156-8.53125zm0 0" fill="#ffffff" data-original="#000000" style=""/><path xmlns="http://www.w3.org/2000/svg" d="m392.535156 409.601562h-34.136718c-4.710938 0-8.53125 3.820313-8.53125 8.53125 0 4.714844 3.820312 8.535157 8.53125 8.535157h34.136718c4.710938 0 8.53125-3.820313 8.53125-8.535157 0-4.710937-3.820312-8.53125-8.53125-8.53125zm0 0" fill="#ffffff" data-original="#000000" style=""/><path xmlns="http://www.w3.org/2000/svg" d="m452.265625 409.601562h-25.597656c-4.714844 0-8.535157 3.820313-8.535157 8.53125 0 4.714844 3.820313 8.535157 8.535157 8.535157h25.597656c4.714844 0 8.535156-3.820313 8.535156-8.535157 0-4.710937-3.820312-8.53125-8.535156-8.53125zm0 0" fill="#ffffff" data-original="#000000" style=""/><path xmlns="http://www.w3.org/2000/svg" d="m452.265625 366.933594h-68.265625c-4.710938 0-8.535156 3.820312-8.535156 8.53125 0 4.714844 3.824218 8.535156 8.535156 8.535156h68.265625c4.714844 0 8.535156-3.820312 8.535156-8.535156 0-4.710938-3.820312-8.53125-8.535156-8.53125zm0 0" fill="#ffffff" data-original="#000000" style=""/></g></svg>
